<?xml version="1.0" encoding="utf-8"?>
<!-- Generator: Adobe Illustrator 23.0.2, SVG Export Plug-In . SVG Version: 6.00 Build 0)  -->
<svg version="1.1" id="Layer_1" xmlns="http://www.w3.org/2000/svg" xmlns:xlink="http://www.w3.org/1999/xlink" x="0px" y="0px"
	 viewBox="0 0 255 64" style="enable-background:new 0 0 255 64;" xml:space="preserve">
<style type="text/css">
	.st0{enable-background:new    ;}
	.st1{fill:#504D4D;}
	.st2{fill:#F5B316;}
</style>
<g id="Group_107" transform="translate(-263 131)">
	<g class="st0">
		<path class="st1" d="M348.4-91.7h-9.7l-1.6,4.7h-5.1l8.8-24.5h5.7l8.8,24.5H350L348.4-91.7z M343.5-105.8L340-95.6h7.1
			L343.5-105.8z"/>
		<path class="st1" d="M367.7-111.4c5.9,0,8.8,3.4,8.8,7.5c0,3-1.6,6-5.6,7l5.8,9.9h-5.7l-5.4-9.5h-2.3v9.5h-4.9v-24.4H367.7z
			 M367.5-107.4h-4.1v7.2h4.1c2.7,0,4-1.4,4-3.6C371.5-106,370.3-107.4,367.5-107.4z"/>
		<path class="st1" d="M392.3-111.7c5.4,0,9.8,2.9,11.5,7.9h-5.6c-1.2-2.3-3.3-3.5-5.9-3.5c-4.3,0-7.3,3.1-7.3,8.1
			c0,4.9,3,8.1,7.3,8.1c2.6,0,4.7-1.2,5.9-3.5h5.6c-1.6,5-6.1,7.9-11.5,7.9c-7,0-12.4-5.1-12.4-12.5
			C379.9-106.6,385.2-111.7,392.3-111.7z"/>
		<path class="st1" d="M423.4-97.4h-10.5V-87H408v-24.4h4.9v10h10.5v-10h4.9V-87h-4.9V-97.4z"/>
		<path class="st1" d="M431.9-111.4h17.9v4h-6.5V-87h-4.9v-20.5h-6.5V-111.4z"/>
		<path class="st1" d="M467.6-107.5h-9.3v6.1h8.2v3.9h-8.2v6.5h9.3v4h-14.2v-24.5h14.2V-107.5z"/>
		<path class="st1" d="M481.3-111.4c5.9,0,8.8,3.4,8.8,7.5c0,3-1.6,6-5.6,7l5.8,9.9h-5.7l-5.4-9.5H477v9.5h-4.9v-24.4H481.3z
			 M481.1-107.4H477v7.2h4.1c2.7,0,4-1.4,4-3.6C485.1-106,483.8-107.4,481.1-107.4z"/>
		<path class="st1" d="M509.6-91.7h-9.7l-1.6,4.7h-5.1l8.8-24.5h5.7l8.8,24.5h-5.2L509.6-91.7z M504.7-105.8l-3.5,10.2h7.1
			L504.7-105.8z"/>
	</g>
	<path class="st2" d="M303-131h-16c-13.2,0-24,10.8-24,24v16c0,13.2,10.8,24,24,24h16c13.2,0,24-10.8,24-24v-16
		C327-120.2,316.2-131,303-131z M284.6-72.4v-13l3.9-3.2v16.3H287C286.2-72.2,285.4-72.3,284.6-72.4z M301.7-72.2v-34.5l3.9,2.9
		v31.4c-0.8,0.1-1.7,0.2-2.6,0.2H301.7z M321.8-91c0,7.6-4.5,14.1-11,17.1v-32.5l-14.4-10.8v45h-2.7v-27.3l-14.4,11.7v14
		c-6.6-2.9-11.2-9.5-11.2-17.2v-16c0-10.4,8.4-18.8,18.8-18.8h16c10.4,0,18.8,8.4,18.8,18.8V-91z"/>
</g>
</svg>
